<mxfile host="app.diagrams.net" modified="2023-03-30T08:30:14.942Z" agent="Mozilla/5.0 (X11; Linux x86_64; rv:109.0) Gecko/20100101 Firefox/111.0" etag="8nkqJXo6gmFs3WL5OSik" version="21.1.0" type="device">
  <diagram name="Page-1" id="fFZipymwrW8PYDlVfr0S">
    <mxGraphModel dx="1195" dy="663" grid="1" gridSize="10" guides="1" tooltips="1" connect="1" arrows="1" fold="1" page="1" pageScale="1" pageWidth="850" pageHeight="1100" background="#B3B3B3" math="0" shadow="0">
      <root>
        <mxCell id="0" />
        <mxCell id="1" parent="0" />
        <mxCell id="Ko6zxl36dRD5kMQxxC6X-1" value="&lt;div&gt;Sensordaten&lt;/div&gt;&lt;div&gt;Interpretation&lt;/div&gt;" style="rounded=0;whiteSpace=wrap;html=1;" vertex="1" parent="1">
          <mxGeometry x="80" y="150" width="110" height="50" as="geometry" />
        </mxCell>
        <mxCell id="Ko6zxl36dRD5kMQxxC6X-12" style="edgeStyle=orthogonalEdgeStyle;rounded=0;orthogonalLoop=1;jettySize=auto;html=1;startArrow=classicThin;startFill=1;" edge="1" parent="1" source="Ko6zxl36dRD5kMQxxC6X-2" target="Ko6zxl36dRD5kMQxxC6X-1">
          <mxGeometry relative="1" as="geometry" />
        </mxCell>
        <mxCell id="Ko6zxl36dRD5kMQxxC6X-22" style="edgeStyle=orthogonalEdgeStyle;rounded=0;orthogonalLoop=1;jettySize=auto;html=1;entryX=0.5;entryY=1;entryDx=0;entryDy=0;startArrow=classic;startFill=1;" edge="1" parent="1" source="Ko6zxl36dRD5kMQxxC6X-2" target="Ko6zxl36dRD5kMQxxC6X-5">
          <mxGeometry relative="1" as="geometry" />
        </mxCell>
        <mxCell id="Ko6zxl36dRD5kMQxxC6X-2" value="Local&lt;br&gt;Perceptual&lt;br&gt;Space (LPS)" style="rounded=0;whiteSpace=wrap;html=1;" vertex="1" parent="1">
          <mxGeometry x="240" y="150" width="110" height="50" as="geometry" />
        </mxCell>
        <mxCell id="Ko6zxl36dRD5kMQxxC6X-5" value="&lt;div&gt;Procedural&lt;/div&gt;&lt;div&gt;Reasoning&lt;br&gt;System (PRS)&lt;/div&gt;" style="rounded=0;whiteSpace=wrap;html=1;" vertex="1" parent="1">
          <mxGeometry x="240" y="50" width="110" height="50" as="geometry" />
        </mxCell>
        <mxCell id="Ko6zxl36dRD5kMQxxC6X-13" style="edgeStyle=orthogonalEdgeStyle;rounded=0;orthogonalLoop=1;jettySize=auto;html=1;entryX=1;entryY=0.5;entryDx=0;entryDy=0;startArrow=classic;startFill=1;" edge="1" parent="1" source="Ko6zxl36dRD5kMQxxC6X-6" target="Ko6zxl36dRD5kMQxxC6X-2">
          <mxGeometry relative="1" as="geometry" />
        </mxCell>
        <mxCell id="Ko6zxl36dRD5kMQxxC6X-23" style="rounded=0;orthogonalLoop=1;jettySize=auto;html=1;entryX=0.75;entryY=1;entryDx=0;entryDy=0;exitX=0.5;exitY=0;exitDx=0;exitDy=0;" edge="1" parent="1" source="Ko6zxl36dRD5kMQxxC6X-6" target="Ko6zxl36dRD5kMQxxC6X-5">
          <mxGeometry relative="1" as="geometry" />
        </mxCell>
        <mxCell id="Ko6zxl36dRD5kMQxxC6X-6" value="&lt;div&gt;Verhaltens-&lt;/div&gt;&lt;div&gt;muster-&lt;/div&gt;&lt;div&gt;steuerung&lt;br&gt;&lt;/div&gt;" style="rounded=0;whiteSpace=wrap;html=1;" vertex="1" parent="1">
          <mxGeometry x="400" y="150" width="110" height="50" as="geometry" />
        </mxCell>
        <mxCell id="Ko6zxl36dRD5kMQxxC6X-8" value="&lt;div&gt;Sensoren&lt;/div&gt;" style="rounded=0;whiteSpace=wrap;html=1;" vertex="1" parent="1">
          <mxGeometry x="85" y="230" width="100" height="30" as="geometry" />
        </mxCell>
        <mxCell id="Ko6zxl36dRD5kMQxxC6X-9" value="&lt;div&gt;Aktoren&lt;/div&gt;" style="rounded=0;whiteSpace=wrap;html=1;" vertex="1" parent="1">
          <mxGeometry x="405" y="230" width="100" height="30" as="geometry" />
        </mxCell>
        <mxCell id="Ko6zxl36dRD5kMQxxC6X-19" style="edgeStyle=orthogonalEdgeStyle;rounded=0;orthogonalLoop=1;jettySize=auto;html=1;entryX=1;entryY=0.25;entryDx=0;entryDy=0;" edge="1" parent="1" source="Ko6zxl36dRD5kMQxxC6X-14" target="Ko6zxl36dRD5kMQxxC6X-5">
          <mxGeometry relative="1" as="geometry" />
        </mxCell>
        <mxCell id="Ko6zxl36dRD5kMQxxC6X-14" value="&lt;div&gt;Schema&lt;/div&gt;&lt;div&gt;library&lt;br&gt;&lt;/div&gt;" style="rounded=1;whiteSpace=wrap;html=1;" vertex="1" parent="1">
          <mxGeometry x="412.5" y="30" width="85" height="40" as="geometry" />
        </mxCell>
        <mxCell id="Ko6zxl36dRD5kMQxxC6X-18" style="edgeStyle=orthogonalEdgeStyle;rounded=0;orthogonalLoop=1;jettySize=auto;html=1;entryX=0;entryY=0.25;entryDx=0;entryDy=0;" edge="1" parent="1" source="Ko6zxl36dRD5kMQxxC6X-15" target="Ko6zxl36dRD5kMQxxC6X-5">
          <mxGeometry relative="1" as="geometry" />
        </mxCell>
        <mxCell id="Ko6zxl36dRD5kMQxxC6X-15" value="&lt;div&gt;Sprach-&lt;/div&gt;&lt;div&gt;eingabe&lt;br&gt;&lt;/div&gt;" style="rounded=1;whiteSpace=wrap;html=1;" vertex="1" parent="1">
          <mxGeometry x="87.5" y="20" width="85" height="40" as="geometry" />
        </mxCell>
        <mxCell id="Ko6zxl36dRD5kMQxxC6X-17" style="edgeStyle=orthogonalEdgeStyle;rounded=0;orthogonalLoop=1;jettySize=auto;html=1;entryX=0;entryY=0.5;entryDx=0;entryDy=0;dashed=1;" edge="1" parent="1" source="Ko6zxl36dRD5kMQxxC6X-16" target="Ko6zxl36dRD5kMQxxC6X-5">
          <mxGeometry relative="1" as="geometry" />
        </mxCell>
        <mxCell id="Ko6zxl36dRD5kMQxxC6X-16" value="Lokalisation" style="rounded=1;whiteSpace=wrap;html=1;" vertex="1" parent="1">
          <mxGeometry x="80" y="80" width="100" height="30" as="geometry" />
        </mxCell>
        <mxCell id="Ko6zxl36dRD5kMQxxC6X-21" style="edgeStyle=orthogonalEdgeStyle;rounded=0;orthogonalLoop=1;jettySize=auto;html=1;dashed=1;" edge="1" parent="1" source="Ko6zxl36dRD5kMQxxC6X-20" target="Ko6zxl36dRD5kMQxxC6X-5">
          <mxGeometry relative="1" as="geometry" />
        </mxCell>
        <mxCell id="Ko6zxl36dRD5kMQxxC6X-20" value="&lt;div&gt;Pfadplannung&lt;/div&gt;" style="rounded=1;whiteSpace=wrap;html=1;" vertex="1" parent="1">
          <mxGeometry x="405" y="75" width="97.5" height="35" as="geometry" />
        </mxCell>
        <mxCell id="Ko6zxl36dRD5kMQxxC6X-24" value="" style="endArrow=none;html=1;rounded=0;" edge="1" parent="1">
          <mxGeometry width="50" height="50" relative="1" as="geometry">
            <mxPoint x="20" y="130" as="sourcePoint" />
            <mxPoint x="530" y="133" as="targetPoint" />
          </mxGeometry>
        </mxCell>
        <mxCell id="Ko6zxl36dRD5kMQxxC6X-25" value="&lt;div&gt;Proaktive&lt;/div&gt;&lt;div&gt;Ebene&lt;/div&gt;" style="text;html=1;align=center;verticalAlign=middle;resizable=0;points=[];autosize=1;strokeColor=none;fillColor=none;" vertex="1" parent="1">
          <mxGeometry y="40" width="80" height="40" as="geometry" />
        </mxCell>
        <mxCell id="Ko6zxl36dRD5kMQxxC6X-26" value="&lt;div&gt;Reaktive&lt;/div&gt;&lt;div&gt;Ebene&lt;br&gt;&lt;/div&gt;" style="text;html=1;align=center;verticalAlign=middle;resizable=0;points=[];autosize=1;strokeColor=none;fillColor=none;" vertex="1" parent="1">
          <mxGeometry y="155" width="80" height="40" as="geometry" />
        </mxCell>
        <mxCell id="Ko6zxl36dRD5kMQxxC6X-36" style="edgeStyle=orthogonalEdgeStyle;rounded=0;orthogonalLoop=1;jettySize=auto;html=1;entryX=0;entryY=0.5;entryDx=0;entryDy=0;startArrow=classic;startFill=1;" edge="1" parent="1" source="Ko6zxl36dRD5kMQxxC6X-27" target="Ko6zxl36dRD5kMQxxC6X-28">
          <mxGeometry relative="1" as="geometry" />
        </mxCell>
        <mxCell id="Ko6zxl36dRD5kMQxxC6X-37" style="rounded=0;orthogonalLoop=1;jettySize=auto;html=1;entryX=0;entryY=0.5;entryDx=0;entryDy=0;startArrow=classic;startFill=1;" edge="1" parent="1" source="Ko6zxl36dRD5kMQxxC6X-27" target="Ko6zxl36dRD5kMQxxC6X-29">
          <mxGeometry relative="1" as="geometry" />
        </mxCell>
        <mxCell id="Ko6zxl36dRD5kMQxxC6X-27" value="&lt;div&gt;LPS&lt;/div&gt;" style="ellipse;whiteSpace=wrap;html=1;" vertex="1" parent="1">
          <mxGeometry x="550" y="50" width="50" height="40" as="geometry" />
        </mxCell>
        <mxCell id="Ko6zxl36dRD5kMQxxC6X-38" style="rounded=0;orthogonalLoop=1;jettySize=auto;html=1;exitX=1;exitY=0.5;exitDx=0;exitDy=0;entryX=-0.018;entryY=0.375;entryDx=0;entryDy=0;entryPerimeter=0;startArrow=none;startFill=0;" edge="1" parent="1" source="Ko6zxl36dRD5kMQxxC6X-28" target="Ko6zxl36dRD5kMQxxC6X-31">
          <mxGeometry relative="1" as="geometry" />
        </mxCell>
        <mxCell id="Ko6zxl36dRD5kMQxxC6X-28" value="&lt;div&gt;Verhalten-&lt;/div&gt;&lt;div&gt;muster 1&lt;br&gt;&lt;/div&gt;" style="whiteSpace=wrap;html=1;" vertex="1" parent="1">
          <mxGeometry x="630" y="50" width="80" height="40" as="geometry" />
        </mxCell>
        <mxCell id="Ko6zxl36dRD5kMQxxC6X-39" style="rounded=0;orthogonalLoop=1;jettySize=auto;html=1;entryX=-0.027;entryY=0.375;entryDx=0;entryDy=0;exitX=1;exitY=0.5;exitDx=0;exitDy=0;entryPerimeter=0;startArrow=none;startFill=0;" edge="1" parent="1" source="Ko6zxl36dRD5kMQxxC6X-29" target="Ko6zxl36dRD5kMQxxC6X-31">
          <mxGeometry relative="1" as="geometry" />
        </mxCell>
        <mxCell id="Ko6zxl36dRD5kMQxxC6X-29" value="&lt;div&gt;Verhalten-&lt;/div&gt;&lt;div&gt;muster n&lt;br&gt;&lt;/div&gt;" style="whiteSpace=wrap;html=1;" vertex="1" parent="1">
          <mxGeometry x="630" y="140" width="80" height="40" as="geometry" />
        </mxCell>
        <mxCell id="Ko6zxl36dRD5kMQxxC6X-30" value="&lt;font style=&quot;font-size: 20px;&quot;&gt;...&lt;/font&gt;" style="text;html=1;align=center;verticalAlign=middle;resizable=0;points=[];autosize=1;strokeColor=none;fillColor=none;" vertex="1" parent="1">
          <mxGeometry x="650" y="95" width="40" height="40" as="geometry" />
        </mxCell>
        <mxCell id="Ko6zxl36dRD5kMQxxC6X-31" value="Resolver" style="whiteSpace=wrap;html=1;" vertex="1" parent="1">
          <mxGeometry x="760" y="80" width="70" height="80" as="geometry" />
        </mxCell>
        <mxCell id="Ko6zxl36dRD5kMQxxC6X-32" value="" style="endArrow=none;html=1;rounded=0;" edge="1" parent="1">
          <mxGeometry width="50" height="50" relative="1" as="geometry">
            <mxPoint x="540" y="250" as="sourcePoint" />
            <mxPoint x="540" y="10" as="targetPoint" />
          </mxGeometry>
        </mxCell>
        <mxCell id="Ko6zxl36dRD5kMQxxC6X-33" value="" style="rounded=1;whiteSpace=wrap;html=1;fillColor=none;" vertex="1" parent="1">
          <mxGeometry x="615" y="15" width="230" height="200" as="geometry" />
        </mxCell>
        <mxCell id="Ko6zxl36dRD5kMQxxC6X-34" value="Verhaltensmustersteuerung" style="text;html=1;align=center;verticalAlign=middle;resizable=0;points=[];autosize=1;strokeColor=none;fillColor=none;" vertex="1" parent="1">
          <mxGeometry x="640" y="20" width="190" height="30" as="geometry" />
        </mxCell>
        <mxCell id="Ko6zxl36dRD5kMQxxC6X-44" style="rounded=0;orthogonalLoop=1;jettySize=auto;html=1;" edge="1" parent="1" source="Ko6zxl36dRD5kMQxxC6X-43" target="Ko6zxl36dRD5kMQxxC6X-31">
          <mxGeometry relative="1" as="geometry" />
        </mxCell>
        <mxCell id="Ko6zxl36dRD5kMQxxC6X-43" value="Aktoren" style="rounded=1;whiteSpace=wrap;html=1;" vertex="1" parent="1">
          <mxGeometry x="700" y="230" width="60" height="20" as="geometry" />
        </mxCell>
      </root>
    </mxGraphModel>
  </diagram>
</mxfile>
